<?xml version="1.0" encoding="utf-8"?>

<svg version="1.1" id="Layer_1" xmlns="http://www.w3.org/2000/svg" xmlns:xlink="http://www.w3.org/1999/xlink" x="0px" y="0px"
	 viewBox="0 0 4853.891 5000" enable-background="new 0 0 4853.891 5000" xml:space="preserve">
<symbol  id="Heart" viewBox="-44.1 -40 88.2 80">
	<path fill="#FF0000" enable-background="new    " d="M43.347,22.954C40.525,33.942,30.67,40,19.662,40
		C10.354,40,3.73,34.565-0.056,27.136c-3.956,7.753-10.708,12.782-20.553,12.782c-11.478,0-20.187-6.511-22.85-17.981
		C-48.227,1.405-25.662-19.583-0.056-40C27.175-19.721,48.421,3.2,43.347,22.954z"/>
</symbol>
<g>
	
		<use xlink:href="#Heart"  width="88.2" height="80" x="-44.1" y="-40" transform="matrix(3.1878 0.0921 0.0923 -3.195 2181.7354 2198.3899)" overflow="visible"/>
	
		<use xlink:href="#Heart"  width="88.2" height="80" x="-44.1" y="-40" transform="matrix(-3.1811 -0.2268 -0.2273 3.1883 4332.6396 4854.6226)" overflow="visible"/>
	
		<use xlink:href="#Heart"  width="88.2" height="80" x="-44.1" y="-40" transform="matrix(2.7865 -1.5511 -1.5546 -2.7929 3357.0886 3449.5232)" overflow="visible"/>
	
		<use xlink:href="#Heart"  width="88.2" height="80" x="-44.1" y="-40" transform="matrix(0.4668 3.1548 3.1619 -0.4679 1060.6317 3652.3198)" overflow="visible"/>
	
		<use xlink:href="#Heart"  width="88.2" height="80" x="-44.1" y="-40" transform="matrix(-1.7764 2.6486 2.6546 1.7804 3504.6992 4378.6396)" overflow="visible"/>
	
		<use xlink:href="#Heart"  width="88.2" height="80" x="-44.1" y="-40" transform="matrix(-2.201 2.3078 2.313 2.206 1664.6379 116.4772)" overflow="visible"/>
	
		<use xlink:href="#Heart"  width="88.2" height="80" x="-44.1" y="-40" transform="matrix(-1.0976 2.9943 3.0011 1.1001 3073.7046 3751.3391)" overflow="visible"/>
	
		<use xlink:href="#Heart"  width="88.2" height="80" x="-44.1" y="-40" transform="matrix(-0.9922 -3.0308 -3.0377 0.9945 1079.3483 791.7762)" overflow="visible"/>
	
		<use xlink:href="#Heart"  width="88.2" height="80" x="-44.1" y="-40" transform="matrix(2.0342 2.4561 2.4617 -2.0388 3932.5503 4891.0015)" overflow="visible"/>
	
		<use xlink:href="#Heart"  width="88.2" height="80" x="-44.1" y="-40" transform="matrix(-3.0394 -0.9656 -0.9678 3.0463 3562.6565 1411.4581)" overflow="visible"/>
	
		<use xlink:href="#Heart"  width="88.2" height="80" x="-44.1" y="-40" transform="matrix(2.368 2.1361 2.141 -2.3734 138.3908 1566.0309)" overflow="visible"/>
	
		<use xlink:href="#Heart"  width="88.2" height="80" x="-44.1" y="-40" transform="matrix(2.465 2.0235 2.0281 -2.4706 3893.1116 880.6802)" overflow="visible"/>
	
		<use xlink:href="#Heart"  width="88.2" height="80" x="-44.1" y="-40" transform="matrix(1.3438 2.8922 2.8987 -1.3469 921.5579 1264.5023)" overflow="visible"/>
	
		<use xlink:href="#Heart"  width="88.2" height="80" x="-44.1" y="-40" transform="matrix(-3.1441 0.5343 0.5355 3.1512 3955.8896 1252.9255)" overflow="visible"/>
	
		<use xlink:href="#Heart"  width="88.2" height="80" x="-44.1" y="-40" transform="matrix(2.5023 1.9771 1.9816 -2.508 135.5364 2800.0437)" overflow="visible"/>
	
		<use xlink:href="#Heart"  width="88.2" height="80" x="-44.1" y="-40" transform="matrix(-1.9604 2.5154 2.5211 1.9649 3166.3872 503.0788)" overflow="visible"/>
	
		<use xlink:href="#Heart"  width="88.2" height="80" x="-44.1" y="-40" transform="matrix(-0.2426 -3.1799 -3.1871 0.2431 4110.5605 2150.1694)" overflow="visible"/>
	
		<use xlink:href="#Heart"  width="88.2" height="80" x="-44.1" y="-40" transform="matrix(-0.6248 3.1273 3.1344 0.6262 4351.3784 4305.8149)" overflow="visible"/>
	
		<use xlink:href="#Heart"  width="88.2" height="80" x="-44.1" y="-40" transform="matrix(-1.8844 -2.5729 -2.5787 1.8886 895.6049 2046.0403)" overflow="visible"/>
	
		<use xlink:href="#Heart"  width="88.2" height="80" x="-44.1" y="-40" transform="matrix(-3.0331 0.9852 0.9874 3.04 2128.6743 2891.1926)" overflow="visible"/>
	
		<use xlink:href="#Heart"  width="88.2" height="80" x="-44.1" y="-40" transform="matrix(2.9177 1.2875 1.2905 -2.9243 1293.4456 3186.4294)" overflow="visible"/>
	
		<use xlink:href="#Heart"  width="88.2" height="80" x="-44.1" y="-40" transform="matrix(-0.3296 -3.172 -3.1793 0.3303 149.7594 1159.2859)" overflow="visible"/>
	
		<use xlink:href="#Heart"  width="88.2" height="80" x="-44.1" y="-40" transform="matrix(0.1746 -3.1843 -3.1916 -0.175 152.9343 1964.6632)" overflow="visible"/>
	
		<use xlink:href="#Heart"  width="88.2" height="80" x="-44.1" y="-40" transform="matrix(3.1371 0.5739 0.5752 -3.1442 3015.1538 159.6349)" overflow="visible"/>
	
		<use xlink:href="#Heart"  width="88.2" height="80" x="-44.1" y="-40" transform="matrix(-0.213 -3.182 -3.1892 0.2135 1087.4316 4800.1074)" overflow="visible"/>
	
		<use xlink:href="#Heart"  width="88.2" height="80" x="-44.1" y="-40" transform="matrix(3.0554 -0.9137 -0.9158 -3.0624 3781.9089 4601.9668)" overflow="visible"/>
	
		<use xlink:href="#Heart"  width="88.2" height="80" x="-44.1" y="-40" transform="matrix(-3.1762 0.2869 0.2876 3.1834 3106.114 4431.0483)" overflow="visible"/>
	
		<use xlink:href="#Heart"  width="88.2" height="80" x="-44.1" y="-40" transform="matrix(-0.2576 3.1787 3.1859 0.2582 731.4433 3560.7322)" overflow="visible"/>
	
		<use xlink:href="#Heart"  width="88.2" height="80" x="-44.1" y="-40" transform="matrix(2.2226 2.2871 2.2923 -2.2276 913.201 4405.1421)" overflow="visible"/>
	
		<use xlink:href="#Heart"  width="88.2" height="80" x="-44.1" y="-40" transform="matrix(-3.0918 0.7817 0.7835 3.0989 440.8339 4842.084)" overflow="visible"/>
	
		<use xlink:href="#Heart"  width="88.2" height="80" x="-44.1" y="-40" transform="matrix(-2.4104 2.0881 2.0929 2.4159 1407.7902 489.6611)" overflow="visible"/>
	
		<use xlink:href="#Heart"  width="88.2" height="80" x="-44.1" y="-40" transform="matrix(3.1888 -0.0453 -0.0454 -3.1961 3139.5596 3164.8269)" overflow="visible"/>
	
		<use xlink:href="#Heart"  width="88.2" height="80" x="-44.1" y="-40" transform="matrix(-0.7905 -3.0896 -3.0966 0.7923 502.7188 3309.3047)" overflow="visible"/>
	
		<use xlink:href="#Heart"  width="88.2" height="80" x="-44.1" y="-40" transform="matrix(-3.0085 -1.058 -1.0605 3.0153 2792.7849 446.8684)" overflow="visible"/>
	
		<use xlink:href="#Heart"  width="88.2" height="80" x="-44.1" y="-40" transform="matrix(-1.7474 2.6678 2.6739 1.7514 1364.6887 2769.2144)" overflow="visible"/>
	
		<use xlink:href="#Heart"  width="88.2" height="80" x="-44.1" y="-40" transform="matrix(3.1621 0.414 0.4149 -3.1693 661.0962 959.8464)" overflow="visible"/>
	
		<use xlink:href="#Heart"  width="88.2" height="80" x="-44.1" y="-40" transform="matrix(-3.1376 -0.5708 -0.5721 3.1448 1333.6989 1017.1267)" overflow="visible"/>
	
		<use xlink:href="#Heart"  width="88.2" height="80" x="-44.1" y="-40" transform="matrix(-3.189 -0.0273 -0.0273 3.1963 4175.9839 599.6453)" overflow="visible"/>
	
		<use xlink:href="#Heart"  width="88.2" height="80" x="-44.1" y="-40" transform="matrix(-1.8596 -2.5909 -2.5967 1.8638 517.1281 1309.6876)" overflow="visible"/>
	
		<use xlink:href="#Heart"  width="88.2" height="80" x="-44.1" y="-40" transform="matrix(2.964 1.1768 1.1795 -2.9708 2910.6763 3449.2949)" overflow="visible"/>
	
		<use xlink:href="#Heart"  width="88.2" height="80" x="-44.1" y="-40" transform="matrix(-0.6712 -3.1177 -3.1248 0.6727 3322.4265 4117.5664)" overflow="visible"/>
	
		<use xlink:href="#Heart"  width="88.2" height="80" x="-44.1" y="-40" transform="matrix(-2.8221 -1.4853 -1.4887 2.8285 3024.3701 2324.4629)" overflow="visible"/>
	
		<use xlink:href="#Heart"  width="88.2" height="80" x="-44.1" y="-40" transform="matrix(-0.593 -3.1335 -3.1406 0.5944 3868.9216 372.2939)" overflow="visible"/>
	
		<use xlink:href="#Heart"  width="88.2" height="80" x="-44.1" y="-40" transform="matrix(-3.1103 0.7045 0.7061 3.1174 167.5751 483.4994)" overflow="visible"/>
	
		<use xlink:href="#Heart"  width="88.2" height="80" x="-44.1" y="-40" transform="matrix(-2.181 -2.3268 -2.3321 2.1859 1357.3593 1448.5724)" overflow="visible"/>
	
		<use xlink:href="#Heart"  width="88.2" height="80" x="-44.1" y="-40" transform="matrix(2.8729 1.3846 1.3877 -2.8794 2914.8267 4146.5166)" overflow="visible"/>
	
		<use xlink:href="#Heart"  width="88.2" height="80" x="-44.1" y="-40" transform="matrix(-1.5067 -2.8107 -2.8171 1.5102 3486.4519 197.8113)" overflow="visible"/>
	
		<use xlink:href="#Heart"  width="88.2" height="80" x="-44.1" y="-40" transform="matrix(-0.5351 -3.1439 -3.1511 0.5363 3794.5588 2408.0386)" overflow="visible"/>
	
		<use xlink:href="#Heart"  width="88.2" height="80" x="-44.1" y="-40" transform="matrix(3.1357 0.5815 0.5829 -3.1428 857.2479 138.9613)" overflow="visible"/>
	
		<use xlink:href="#Heart"  width="88.2" height="80" x="-44.1" y="-40" transform="matrix(1.0226 3.0207 3.0276 -1.0249 2766.3884 3062.311)" overflow="visible"/>
	
		<use xlink:href="#Heart"  width="88.2" height="80" x="-44.1" y="-40" transform="matrix(3.1567 0.4534 0.4544 -3.1639 1302.6879 145.5983)" overflow="visible"/>
	
		<use xlink:href="#Heart"  width="88.2" height="80" x="-44.1" y="-40" transform="matrix(3.0573 -0.9073 -0.9094 -3.0643 540.1391 4530.5493)" overflow="visible"/>
	
		<use xlink:href="#Heart"  width="88.2" height="80" x="-44.1" y="-40" transform="matrix(2.163 -2.3435 -2.3488 -2.1679 4089.1943 3780.8118)" overflow="visible"/>
	
		<use xlink:href="#Heart"  width="88.2" height="80" x="-44.1" y="-40" transform="matrix(-1.9531 2.5211 2.5269 1.9575 128.7133 3154.2009)" overflow="visible"/>
	
		<use xlink:href="#Heart"  width="88.2" height="80" x="-44.1" y="-40" transform="matrix(-2.1785 2.3291 2.3344 2.1835 2571.0369 107.6201)" overflow="visible"/>
	
		<use xlink:href="#Heart"  width="88.2" height="80" x="-44.1" y="-40" transform="matrix(-1.1787 -2.9633 -2.9701 1.1813 2570.4939 2396.3716)" overflow="visible"/>
	
		<use xlink:href="#Heart"  width="88.2" height="80" x="-44.1" y="-40" transform="matrix(1.4531 2.8389 2.8453 -1.4564 503.4779 4167.3213)" overflow="visible"/>
	
		<use xlink:href="#Heart"  width="88.2" height="80" x="-44.1" y="-40" transform="matrix(1.8192 -2.6194 -2.6253 -1.8233 3433.8877 2554.6838)" overflow="visible"/>
	
		<use xlink:href="#Heart"  width="88.2" height="80" x="-44.1" y="-40" transform="matrix(3.1292 -0.6153 -0.6167 -3.1363 3945.0728 4299.7495)" overflow="visible"/>
	
		<use xlink:href="#Heart"  width="88.2" height="80" x="-44.1" y="-40" transform="matrix(-3.123 0.6461 0.6476 3.1301 3135.1938 2770.3738)" overflow="visible"/>
	
		<use xlink:href="#Heart"  width="88.2" height="80" x="-44.1" y="-40" transform="matrix(-3.1595 0.4334 0.4344 3.1667 1317.7676 4379.2339)" overflow="visible"/>
	
		<use xlink:href="#Heart"  width="88.2" height="80" x="-44.1" y="-40" transform="matrix(0.4876 3.1516 3.1588 -0.4887 2542.9124 3462.5181)" overflow="visible"/>
	
		<use xlink:href="#Heart"  width="88.2" height="80" x="-44.1" y="-40" transform="matrix(0.3879 -3.1655 -3.1726 -0.3888 153.915 3991.0251)" overflow="visible"/>
	
		<use xlink:href="#Heart"  width="88.2" height="80" x="-44.1" y="-40" transform="matrix(-3.0148 -1.0401 -1.0424 3.0216 488.5931 2556.5283)" overflow="visible"/>
	
		<use xlink:href="#Heart"  width="88.2" height="80" x="-44.1" y="-40" transform="matrix(-2.9809 1.1336 1.1361 2.9876 2394.5027 3150.499)" overflow="visible"/>
	
		<use xlink:href="#Heart"  width="88.2" height="80" x="-44.1" y="-40" transform="matrix(-1.3236 2.9015 2.9081 1.3266 2238.2703 2564.1692)" overflow="visible"/>
	
		<use xlink:href="#Heart"  width="88.2" height="80" x="-44.1" y="-40" transform="matrix(2.8678 -1.3951 -1.3983 -2.8743 3160.0264 1186.916)" overflow="visible"/>
	
		<use xlink:href="#Heart"  width="88.2" height="80" x="-44.1" y="-40" transform="matrix(3.1759 0.2896 0.2903 -3.1832 2716.1355 3819.032)" overflow="visible"/>
	
		<use xlink:href="#Heart"  width="88.2" height="80" x="-44.1" y="-40" transform="matrix(0.8513 3.0734 3.0804 -0.8533 4307.668 1040.939)" overflow="visible"/>
	
		<use xlink:href="#Heart"  width="88.2" height="80" x="-44.1" y="-40" transform="matrix(-1.7538 -2.6636 -2.6697 1.7578 3054.3738 1930.3119)" overflow="visible"/>
	
		<use xlink:href="#Heart"  width="88.2" height="80" x="-44.1" y="-40" transform="matrix(-0.4023 3.1637 3.1708 0.4032 2326.5122 456.5027)" overflow="visible"/>
	
		<use xlink:href="#Heart"  width="88.2" height="80" x="-44.1" y="-40" transform="matrix(-0.2462 3.1796 3.1868 0.2468 1348.8062 3545.3274)" overflow="visible"/>
	
		<use xlink:href="#Heart"  width="88.2" height="80" x="-44.1" y="-40" transform="matrix(-3.0649 0.8816 0.8836 3.0718 2976.4163 846.1735)" overflow="visible"/>
	
		<use xlink:href="#Heart"  width="88.2" height="80" x="-44.1" y="-40" transform="matrix(-0.9872 3.0325 3.0394 0.9894 3242.7661 4775.7612)" overflow="visible"/>
	
		<use xlink:href="#Heart"  width="88.2" height="80" x="-44.1" y="-40" transform="matrix(3.0612 -0.8942 -0.8962 -3.0682 3955.4294 3489.1716)" overflow="visible"/>
	
		<use xlink:href="#Heart"  width="88.2" height="80" x="-44.1" y="-40" transform="matrix(-3.1383 -0.5672 -0.5685 3.1454 2115.427 757.9989)" overflow="visible"/>
	
		<use xlink:href="#Heart"  width="88.2" height="80" x="-44.1" y="-40" transform="matrix(-3.0353 0.9785 0.9807 3.0422 1081.4292 1688.3351)" overflow="visible"/>
	
		<use xlink:href="#Heart"  width="88.2" height="80" x="-44.1" y="-40" transform="matrix(-3.1681 -0.3653 -0.3661 3.1753 1522.3978 2389.0969)" overflow="visible"/>
	
		<use xlink:href="#Heart"  width="88.2" height="80" x="-44.1" y="-40" transform="matrix(-3.1733 0.3173 0.3181 3.1805 895.6915 3976.5671)" overflow="visible"/>
	
		<use xlink:href="#Heart"  width="88.2" height="80" x="-44.1" y="-40" transform="matrix(-3.1171 -0.674 -0.6755 3.1242 1678.8562 759.082)" overflow="visible"/>
	
		<use xlink:href="#Heart"  width="88.2" height="80" x="-44.1" y="-40" transform="matrix(-2.7033 1.692 1.6958 2.7094 3473.7568 3015.0503)" overflow="visible"/>
	
		<use xlink:href="#Heart"  width="88.2" height="80" x="-44.1" y="-40" transform="matrix(-1.1334 2.9809 2.9877 1.136 1758.2211 2164.2979)" overflow="visible"/>
	
		<use xlink:href="#Heart"  width="88.2" height="80" x="-44.1" y="-40" transform="matrix(-3.1824 -0.2066 -0.207 3.1897 4549.5703 4566.5679)" overflow="visible"/>
	
		<use xlink:href="#Heart"  width="88.2" height="80" x="-44.1" y="-40" transform="matrix(2.0048 -2.4802 -2.4858 -2.0094 3378.5154 2173.3774)" overflow="visible"/>
	
		<use xlink:href="#Heart"  width="88.2" height="80" x="-44.1" y="-40" transform="matrix(0.8538 3.0727 3.0797 -0.8558 2496.8123 2827.0894)" overflow="visible"/>
	
		<use xlink:href="#Heart"  width="88.2" height="80" x="-44.1" y="-40" transform="matrix(-0.1531 3.1854 3.1927 0.1535 2545.0125 794.4811)" overflow="visible"/>
	
		<use xlink:href="#Heart"  width="88.2" height="80" x="-44.1" y="-40" transform="matrix(-3.0984 0.7551 0.7568 3.1055 495.191 149.8114)" overflow="visible"/>
	
		<use xlink:href="#Heart"  width="88.2" height="80" x="-44.1" y="-40" transform="matrix(-3.0546 0.9164 0.9185 3.0616 3740.7766 3993.1401)" overflow="visible"/>
	
		<use xlink:href="#Heart"  width="88.2" height="80" x="-44.1" y="-40" transform="matrix(-1.1631 -2.9695 -2.9762 1.1657 797.7816 4812.3921)" overflow="visible"/>
	
		<use xlink:href="#Heart"  width="88.2" height="80" x="-44.1" y="-40" transform="matrix(1.6249 2.7441 2.7503 -1.6286 120.965 2380.5798)" overflow="visible"/>
	
		<use xlink:href="#Heart"  width="88.2" height="80" x="-44.1" y="-40" transform="matrix(-1.8783 2.5773 2.5831 1.8826 108.6695 4788.0825)" overflow="visible"/>
	
		<use xlink:href="#Heart"  width="88.2" height="80" x="-44.1" y="-40" transform="matrix(-1.1643 2.969 2.9757 1.1669 4276.8872 1825.528)" overflow="visible"/>
	
		<use xlink:href="#Heart"  width="88.2" height="80" x="-44.1" y="-40" transform="matrix(-0.2998 -3.175 -3.1822 0.3005 4163.6587 4575.5581)" overflow="visible"/>
	
		<use xlink:href="#Heart"  width="88.2" height="80" x="-44.1" y="-40" transform="matrix(-3.189 0.0308 0.0309 3.1962 3485.8945 662.0508)" overflow="visible"/>
	
		<use xlink:href="#Heart"  width="88.2" height="80" x="-44.1" y="-40" transform="matrix(-2.3365 2.1705 2.1755 2.3418 122.2203 106.7858)" overflow="visible"/>
	
		<use xlink:href="#Heart"  width="88.2" height="80" x="-44.1" y="-40" transform="matrix(-2.931 -1.2569 -1.2598 2.9377 3431.4478 3798.0369)" overflow="visible"/>
	
		<use xlink:href="#Heart"  width="88.2" height="80" x="-44.1" y="-40" transform="matrix(-3.1593 -0.4349 -0.4359 3.1665 618.7748 537.0222)" overflow="visible"/>
	
		<use xlink:href="#Heart"  width="88.2" height="80" x="-44.1" y="-40" transform="matrix(2.387 2.1149 2.1197 -2.3924 478.3461 3791.5017)" overflow="visible"/>
	
		<use xlink:href="#Heart"  width="88.2" height="80" x="-44.1" y="-40" transform="matrix(-2.7443 -1.6246 -1.6283 2.7506 932.2695 3210.7517)" overflow="visible"/>
	
		<use xlink:href="#Heart"  width="88.2" height="80" x="-44.1" y="-40" transform="matrix(-3.1788 0.257 0.2576 3.186 3573.8596 4842.624)" overflow="visible"/>
	
		<use xlink:href="#Heart"  width="88.2" height="80" x="-44.1" y="-40" transform="matrix(1.3085 -2.9083 -2.915 -1.3114 483.7569 1793.5406)" overflow="visible"/>
	
		<use xlink:href="#Heart"  width="88.2" height="80" x="-44.1" y="-40" transform="matrix(1.2848 2.9189 2.9255 -1.2878 3900.7769 1688.65)" overflow="visible"/>
	
		<use xlink:href="#Heart"  width="88.2" height="80" x="-44.1" y="-40" transform="matrix(2.0366 -2.4541 -2.4597 -2.0412 1339.1975 4018.3354)" overflow="visible"/>
	
		<use xlink:href="#Heart"  width="88.2" height="80" x="-44.1" y="-40" transform="matrix(1.6786 2.7116 2.7178 -1.6824 1345.8448 4826.8989)" overflow="visible"/>
	
		<use xlink:href="#Heart"  width="88.2" height="80" x="-44.1" y="-40" transform="matrix(2.8236 1.4825 1.4859 -2.83 3679.2332 3648.5474)" overflow="visible"/>
	
		<use xlink:href="#Heart"  width="88.2" height="80" x="-44.1" y="-40" transform="matrix(3.1484 -0.5081 -0.5093 -3.1555 3465.9666 1804.9614)" overflow="visible"/>
	
		<use xlink:href="#Heart"  width="88.2" height="80" x="-44.1" y="-40" transform="matrix(3.1256 -0.6335 -0.6349 -3.1327 599.9288 2954.3621)" overflow="visible"/>
	
		<use xlink:href="#Heart"  width="88.2" height="80" x="-44.1" y="-40" transform="matrix(-2.5289 1.943 1.9474 2.5346 3139.9338 1532.782)" overflow="visible"/>
	
		<use xlink:href="#Heart"  width="88.2" height="80" x="-44.1" y="-40" transform="matrix(3.0326 -0.9867 -0.989 -3.0395 2646.2205 2118.7532)" overflow="visible"/>
	
		<use xlink:href="#Heart"  width="88.2" height="80" x="-44.1" y="-40" transform="matrix(-3.1827 0.2017 0.2021 3.19 4332.7095 1429.5056)" overflow="visible"/>
	
		<use xlink:href="#Heart"  width="88.2" height="80" x="-44.1" y="-40" transform="matrix(-2.8798 -1.3702 -1.3733 2.8863 240.3151 832.1602)" overflow="visible"/>
	
		<use xlink:href="#Heart"  width="88.2" height="80" x="-44.1" y="-40" transform="matrix(-2.8294 1.4714 1.4747 2.8358 142.4979 4365.0698)" overflow="visible"/>
	
		<use xlink:href="#Heart"  width="88.2" height="80" x="-44.1" y="-40" transform="matrix(2.5268 -1.9458 -1.9502 -2.5325 1181.4226 2388.4858)" overflow="visible"/>
	
		<use xlink:href="#Heart"  width="88.2" height="80" x="-44.1" y="-40" transform="matrix(2.3558 -2.1495 -2.1544 -2.3612 3567.3452 1080.2538)" overflow="visible"/>
	
		<use xlink:href="#Heart"  width="88.2" height="80" x="-44.1" y="-40" transform="matrix(2.9821 -1.1303 -1.1329 -2.9889 155.2709 3597.0146)" overflow="visible"/>
	
		<use xlink:href="#Heart"  width="88.2" height="80" x="-44.1" y="-40" transform="matrix(-3.1759 0.2903 0.2909 3.1831 3731.5063 2018.1183)" overflow="visible"/>
	
		<use xlink:href="#Heart"  width="88.2" height="80" x="-44.1" y="-40" transform="matrix(3.0987 -0.7539 -0.7556 -3.1058 1024.6567 453.1594)" overflow="visible"/>
	
		<use xlink:href="#Heart"  width="88.2" height="80" x="-44.1" y="-40" transform="matrix(2.2466 -2.2635 -2.2686 -2.2517 1359.3802 1984.4022)" overflow="visible"/>
	
		<use xlink:href="#Heart"  width="88.2" height="80" x="-44.1" y="-40" transform="matrix(1.7842 2.6433 2.6493 -1.7883 2807.7119 2652.2283)" overflow="visible"/>
	
		<use xlink:href="#Heart"  width="88.2" height="80" x="-44.1" y="-40" transform="matrix(-3.1779 0.2673 0.2679 3.1851 1746.6597 2780.3809)" overflow="visible"/>
	
		<use xlink:href="#Heart"  width="88.2" height="80" x="-44.1" y="-40" transform="matrix(3.1865 -0.1294 -0.1297 -3.1937 2129.1633 143.8838)" overflow="visible"/>
	
		<use xlink:href="#Heart"  width="88.2" height="80" x="-44.1" y="-40" transform="matrix(-1.7336 2.6768 2.6829 1.7375 4199.2656 4024.7327)" overflow="visible"/>
	
		<use xlink:href="#Heart"  width="88.2" height="80" x="-44.1" y="-40" transform="matrix(-2.1775 -2.33 -2.3353 2.1824 1935.5751 2504.8838)" overflow="visible"/>
	
		<use xlink:href="#Heart"  width="88.2" height="80" x="-44.1" y="-40" transform="matrix(-1.5121 2.8078 2.8142 1.5156 741.1424 1626.1542)" overflow="visible"/>
	
		<use xlink:href="#Heart"  width="88.2" height="80" x="-44.1" y="-40" transform="matrix(2.1686 2.3383 2.3436 -2.1735 4694.7534 4901.3101)" overflow="visible"/>
	
		<use xlink:href="#Heart"  width="88.2" height="80" x="-44.1" y="-40" transform="matrix(1.3116 -2.9069 -2.9135 -1.3146 3742.0723 3249.4885)" overflow="visible"/>
	
		<use xlink:href="#Heart"  width="88.2" height="80" x="-44.1" y="-40" transform="matrix(0.2709 3.1776 3.1848 -0.2715 798.8411 2473.3018)" overflow="visible"/>
	
		<use xlink:href="#Heart"  width="88.2" height="80" x="-44.1" y="-40" transform="matrix(1.2173 2.9477 2.9544 -1.2201 1879.1284 460.2637)" overflow="visible"/>
	
		<use xlink:href="#Heart"  width="88.2" height="80" x="-44.1" y="-40" transform="matrix(-1.703 2.6964 2.7025 1.7069 986.7657 2813.8804)" overflow="visible"/>
	
		<use xlink:href="#Heart"  width="88.2" height="80" x="-44.1" y="-40" transform="matrix(2.1847 -2.3233 -2.3286 -2.1897 515.4576 2202.1619)" overflow="visible"/>
</g>
</svg>
